# Blender v2.54 (sub 0) OBJ File: 'flatsmooth.blend'
# www.blender.org
mtllib flatsmooth.mtl
o Sphere
v -0.143936 1.000714 -0.094741
v -0.148136 0.899984 -0.528213
v -0.152562 0.621146 -0.875045
v -0.156337 0.219429 -1.066543
v -0.157759 -0.901914 -0.521066
v -0.140794 0.903386 0.339517
v -0.139332 0.627278 0.688550
v -0.139839 0.227075 0.883228
v -0.142216 -0.217957 0.884993
v -0.145991 -0.619674 0.693496
v -0.150417 -0.898512 0.346664
v -0.154617 -0.999242 -0.086808
v 0.066022 -0.899905 0.286706
v 0.244019 -0.622186 0.585456
v 0.344118 -0.221089 0.750270
v 0.346495 0.223943 0.748504
v 0.250678 0.624767 0.580510
v 0.075645 0.901993 0.279559
v 0.233106 0.900517 0.119413
v 0.534413 0.622107 0.291937
v 0.700306 0.220627 0.388660
v 0.697930 -0.224405 0.390425
v 0.527754 -0.624846 0.296883
v 0.223483 -0.901381 0.126560
v 0.279774 -0.902544 -0.090863
v 0.629186 -0.626941 -0.094900
v 0.824414 -0.227019 -0.098120
v 0.826791 0.218013 -0.099885
v 0.635845 0.620011 -0.099846
v 0.289397 0.899353 -0.098010
v 0.229435 0.898815 -0.314452
v 0.527798 0.619041 -0.489861
v 0.692057 0.216803 -0.586226
v 0.689681 -0.228228 -0.584460
v 0.521139 -0.627911 -0.484915
v 0.219812 -0.903083 -0.307305
v 0.059664 -0.902852 -0.464770
v 0.232561 -0.627496 -0.768657
v 0.329831 -0.227710 -0.938282
v 0.332208 0.217322 -0.940047
v 0.239221 0.619456 -0.773603
v 0.069287 0.899046 -0.471917
v -0.158714 -0.225603 -1.064777
v -0.159221 -0.625806 -0.870099
v -0.829188 -0.622206 -0.864444
v -0.828680 -0.222003 -1.059123
v -0.824583 -0.995642 -0.081153
v -0.820383 -0.894911 0.352319
v -0.815958 -0.616074 0.699151
v -0.812182 -0.214357 0.890648
v -0.809806 0.230675 0.888883
v -0.809299 0.630878 0.694204
v -0.810761 0.906987 0.345171
v -0.827725 -0.898314 -0.515411
v -0.826303 0.223029 -1.060888
v -0.822528 0.624746 -0.869391
v -0.818103 0.903584 -0.522559
v -0.813903 1.004314 -0.089087
vt 0.283058 0.500000
vt 0.500000 0.500000
vt 0.500000 0.835000
vt 0.283058 0.835000
vt 0.500000 0.611260
vt 0.500000 0.388740
vt 0.835000 0.388740
vt 0.835000 0.611260
vt 0.890916 0.500000
vt 0.716942 0.500000
vt 0.716942 0.835000
vt 0.890916 0.835000
vt 0.500000 0.188255
vt 0.835000 0.188255
vt 0.109084 0.500000
vt 0.109084 0.835000
vt 0.500000 0.811745
vt 0.835000 0.811745
vt 0.716942 0.950484
vt 0.283058 0.950484
vt 0.500000 1.000000
vt 0.890916 0.811745
vt 0.012536 0.611260
vt 0.109084 0.811745
vt 0.987464 0.611260
vt 0.987464 0.388740
vt 0.716942 0.049516
vt 0.500000 0.000000
vt 0.283058 0.049516
vt 0.012536 0.388740
vt 0.109084 0.188255
vt 0.890916 0.188255
vt 0.312123 0.391529
vt 0.161457 0.304542
vt 0.304542 0.188255
vt 0.256268 0.388740
vt 0.256268 0.611260
vt 0.304542 0.811745
vt 0.391529 0.312123
vt 0.304542 0.161457
vt 0.077844 0.611260
vt 0.161457 0.811745
vt 0.077844 0.388740
vt 0.161457 0.188255
vt 0.500000 0.283058
vt 0.500000 0.109084
vt 0.608471 0.312123
vt 0.695458 0.161457
vt 0.743732 0.611260
vt 0.695458 0.811745
vt 0.743732 0.388740
vt 0.695458 0.188255
vt 0.687877 0.391529
vt 0.838543 0.304542
vt 0.838543 0.188255
vt 0.922156 0.388740
vn 0.007089 0.975779 0.218644
vn -0.003324 -0.974034 0.226379
vn -0.008461 -0.003921 -0.999956
vn -0.009450 -0.784259 -0.620361
vn -0.007089 -0.975779 -0.218644
vn -0.009940 -0.437407 -0.899209
vn 0.001100 -0.779369 0.626564
vn 0.005306 -0.430341 0.902651
vn 0.008461 0.003921 0.999956
vn 0.009940 0.437407 0.899209
vn 0.009450 0.784259 0.620361
vn -0.005306 0.430341 -0.902651
vn -0.001100 0.779369 -0.626564
vn 0.003324 0.974034 -0.226378
vn -0.999950 0.005373 0.008440
vn -0.999950 0.005374 0.008440
vn 0.108005 -0.994140 0.002960
vn 0.214667 -0.901212 0.376415
vn 0.056490 -0.898343 0.435591
vn 0.392743 -0.624195 0.675314
vn 0.106204 -0.618305 0.778710
vn 0.493301 -0.222510 0.840907
vn 0.134465 -0.217933 0.966643
vn 0.495682 0.223884 0.839137
vn 0.136814 0.224128 0.964873
vn 0.399426 0.625324 0.670370
vn 0.112827 0.623280 0.773797
vn 0.224281 0.901822 0.369243
vn 0.066103 0.901120 0.428449
vn 0.118625 0.992920 -0.004883
vn 0.381298 0.900357 0.209571
vn 0.682791 0.622669 0.382183
vn 0.849422 0.220588 0.479324
vn 0.847041 -0.225837 0.481094
vn 0.676107 -0.626850 0.387127
vn 0.371654 -0.902676 0.216712
vn 0.427808 -0.903836 -0.000061
vn 0.777398 -0.628956 -0.004089
vn 0.973510 -0.228431 -0.007324
vn 0.975890 0.217963 -0.009095
vn 0.784082 0.620563 -0.009064
vn 0.437422 0.899197 -0.007202
vn 0.377636 0.898679 -0.223029
vn 0.676168 0.619587 -0.398541
vn 0.841182 0.216773 -0.495346
vn 0.838801 -0.229652 -0.493576
vn 0.669485 -0.629933 -0.393597
vn 0.368023 -0.904386 -0.215888
vn 0.208319 -0.904172 -0.372906
vn 0.381298 -0.629505 -0.676962
vn 0.479019 -0.229133 -0.847346
vn 0.481399 0.217292 -0.849117
vn 0.387982 0.620014 -0.681906
vn 0.217933 0.898892 -0.380047
vn 0.058779 0.897732 -0.436567
vn 0.099673 0.617176 -0.780450
vn 0.120457 0.216559 -0.968780
vn 0.118107 -0.225501 -0.967040
vn 0.093051 -0.624378 -0.775536
vn 0.049165 -0.901730 -0.429426
usemtl Silver_flatsmoothtex.png
s off
f 6/1/1 1/2/1 58/3/1 53/4/1
f 12/2/2 11/1/2 48/4/2 47/3/2
f 4/5/3 43/6/3 46/7/3 55/8/3
f 44/9/4 5/10/4 54/11/4 45/12/4
f 5/10/5 12/2/5 47/3/5 54/11/5
f 43/6/6 44/13/6 45/14/6 46/7/6
f 11/1/7 10/15/7 49/16/7 48/4/7
f 10/13/8 9/6/8 50/7/8 49/14/8
f 9/6/9 8/5/9 51/8/9 50/7/9
f 8/5/10 7/17/10 52/18/10 51/8/10
f 7/15/11 6/1/11 53/4/11 52/16/11
f 3/17/12 4/5/12 55/8/12 56/18/12
f 2/10/13 3/9/13 56/12/13 57/11/13
f 1/2/14 2/10/14 57/11/14 58/3/14
f 57/19/15 53/20/15 58/21/15
f 56/22/15 51/23/15 52/24/15
f 55/25/15 51/23/15 56/22/15
f 46/26/16 51/23/16 55/25/16
f 54/27/15 47/28/15 48/29/15
f 53/20/16 56/22/16 52/24/16
f 53/20/16 57/19/16 56/22/16
f 50/30/16 48/29/16 49/31/16
f 54/27/16 46/26/16 45/32/16
f 54/27/15 48/29/15 46/26/15
f 51/23/15 48/29/15 50/30/15
f 51/23/16 46/26/16 48/29/16
usemtl Gold_flatsmoothtex.png
s 1
f 12/2/17 13/33/18 11/1/19
f 11/1/19 13/33/18 14/34/20 10/15/21
f 10/13/21 14/35/20 15/36/22 9/6/23
f 9/6/23 15/36/22 16/37/24 8/5/25
f 8/5/25 16/37/24 17/38/26 7/17/27
f 7/15/27 17/34/26 18/33/28 6/1/29
f 18/33/28 1/2/30 6/1/29
f 19/39/31 1/2/30 18/33/28
f 17/34/26 20/40/32 19/39/31 18/33/28
f 16/41/24 21/37/33 20/38/32 17/42/26
f 15/43/22 22/36/34 21/37/33 16/41/24
f 14/44/20 23/35/35 22/36/34 15/43/22
f 13/33/18 24/39/36 23/40/35 14/34/20
f 12/2/17 24/39/36 13/33/18
f 12/2/17 25/45/37 24/39/36
f 24/39/36 25/45/37 26/46/38 23/40/35
f 23/35/35 26/13/38 27/6/39 22/36/34
f 22/36/34 27/6/39 28/5/40 21/37/33
f 21/37/33 28/5/40 29/17/41 20/38/32
f 20/40/32 29/46/41 30/45/42 19/39/31
f 30/45/42 1/2/30 19/39/31
f 31/47/43 1/2/30 30/45/42
f 29/46/41 32/48/44 31/47/43 30/45/42
f 28/5/40 33/49/45 32/50/44 29/17/41
f 27/6/39 34/51/46 33/49/45 28/5/40
f 26/13/38 35/52/47 34/51/46 27/6/39
f 25/45/37 36/47/48 35/48/47 26/46/38
f 12/2/17 36/47/48 25/45/37
f 12/2/17 37/53/49 36/47/48
f 36/47/48 37/53/49 38/54/50 35/48/47
f 35/52/47 38/55/50 39/56/51 34/51/46
f 34/43/46 39/36/51 40/37/52 33/41/45
f 33/41/45 40/37/52 41/38/53 32/42/44
f 32/48/44 41/54/53 42/53/54 31/47/43
f 42/53/54 1/2/30 31/47/43
f 2/10/55 1/2/30 42/53/54
f 41/54/53 3/9/56 2/10/55 42/53/54
f 40/37/52 4/5/57 3/17/56 41/38/53
f 39/36/51 43/6/58 4/5/57 40/37/52
f 38/35/50 44/13/59 43/6/58 39/36/51
f 37/53/49 5/10/60 44/9/59 38/54/50
f 12/2/17 5/10/60 37/53/49
