# Blender v2.55 (sub 0) OBJ File: 'floor.blend'
# www.blender.org
mtllib floor.mtl
o floor_Cube
v 22.407654 -0.000001 -22.407650
v 22.407654 0.000001 22.407658
v -22.407661 0.000001 22.407654
v -22.407648 -0.000001 -22.407661
v -22.407648 -1.209960 -22.407661
v -22.407661 -1.209958 22.407654
v 22.407654 -1.209958 22.407658
v 22.407654 -1.209960 -22.407650
vt 0.000000 0.000000
vt 1.000000 0.000000
vt 1.000000 1.000000
vt 0.000000 1.000000
vn 0.000000 1.000000 -0.000000
vn -1.000000 0.000000 -0.000000
vn -0.000000 0.000000 1.000000
vn 0.000000 0.000000 -1.000000
vn 1.000000 -0.000000 0.000000
vn -0.000000 -1.000000 0.000000
usemtl Material
s off
f 1/1/1 4/2/1 3/3/1
f 1/1/1 3/3/1 2/4/1
f 3/1/2 4/2/2 5/3/2
f 3/1/2 5/2/2 6/3/2
f 2/1/3 3/3/3 6/4/3
f 2/1/3 6/3/3 7/4/3
f 4/1/4 1/2/4 8/3/4
f 4/1/4 8/2/4 5/3/4
f 1/1/5 2/3/5 7/4/5
f 1/1/5 7/3/5 8/4/5
f 6/1/6 5/2/6 8/3/6
f 7/4/6 6/1/6 8/3/6
