# Blender v2.55 (sub 0) OBJ File: 'floor.blend'
# www.blender.org
mtllib floor.mtl
o Cube
v 8.000000 -0.345288 -8.000000
v 8.000000 -0.345287 8.000000
v -8.000001 -0.345287 7.999998
v -7.999997 -0.345288 -8.000003
v 8.000004 0.345287 -7.999996
v 7.999995 0.345288 8.000005
v -8.000003 0.345288 7.999997
v -7.999999 0.345287 -8.000000
vt 1.000000 1.000000
vt 0.000000 1.000000
vt 0.000000 0.000000
vt 0.000000 0.000001
vt 1.000000 0.000000
vn 0.000000 0.000006 -1.000000
vn 0.000000 0.000004 -1.000000
vn -1.000000 -0.000003 -0.000000
vn -0.000000 -0.000007 1.000000
vn -0.000000 0.000001 1.000000
vn 1.000000 -0.000006 0.000000
vn 1.000000 0.000007 0.000001
vn 0.000000 1.000000 -0.000000
vn -0.000000 -1.000000 0.000000
usemtl Material
s off
f 5/1/1 1/1/1 8/2/1
f 1/1/2 4/2/2 8/2/2
f 3/3/3 7/4/3 8/2/3
f 3/3/3 8/2/3 4/2/3
f 2/5/4 6/5/4 3/3/4
f 6/5/5 7/4/5 3/3/5
f 1/1/6 5/1/6 2/5/6
f 5/1/7 6/5/7 2/5/7
f 5/1/8 8/2/8 6/5/8
f 8/2/8 7/4/8 6/5/8
f 1/1/9 2/5/9 3/3/9
f 1/1/9 3/3/9 4/2/9
