# Blender v2.55 (sub 0) OBJ File: 'sphere.blend'
# www.blender.org
mtllib sphere.mtl
o Cube
v 0.000000 -1.000000 0.000000
v 0.723600 -0.447215 0.525720
v -0.276385 -0.447215 0.850640
v -0.894425 -0.447215 0.000000
v -0.276385 -0.447215 -0.850640
v 0.723600 -0.447215 -0.525720
v 0.276385 0.447215 0.850640
v -0.723600 0.447215 0.525720
v -0.723600 0.447215 -0.525720
v 0.276385 0.447215 -0.850640
v 0.894425 0.447215 -0.000000
v 0.000000 1.000000 -0.000000
v 0.425323 -0.850654 0.309011
v -0.162456 -0.850654 0.499995
v 0.262869 -0.525738 0.809012
v 0.425323 -0.850654 -0.309011
v 0.850648 -0.525736 0.000000
v -0.525730 -0.850652 0.000000
v -0.688189 -0.525736 0.499997
v -0.162456 -0.850654 -0.499995
v -0.688189 -0.525736 -0.499997
v 0.262869 -0.525738 -0.809012
v 0.951058 -0.000000 -0.309013
v 0.951058 0.000000 0.309013
v 0.587786 0.000000 0.809017
v 0.000000 0.000000 1.000000
v -0.587786 0.000000 0.809017
v -0.951058 0.000000 0.309013
v -0.951058 -0.000000 -0.309013
v -0.587786 -0.000000 -0.809017
v 0.000000 -0.000000 -1.000000
v 0.587786 -0.000000 -0.809017
v 0.688189 0.525736 0.499997
v -0.262869 0.525738 0.809012
v -0.850648 0.525736 -0.000000
v -0.262869 0.525738 -0.809012
v 0.688189 0.525736 -0.499997
v 0.525730 0.850652 -0.000000
v 0.162456 0.850654 0.499995
v -0.425323 0.850654 0.309011
v -0.425323 0.850654 -0.309011
v 0.162456 0.850654 -0.499995
vt 0.585432 0.545209
vt 0.528572 0.683740
vt 0.464496 0.551315
vt 0.653898 0.715355
vt 0.446337 0.435435
vt 0.541352 0.525658
vt 0.408874 0.525847
vt 0.580978 0.840781
vt 0.388323 0.683600
vt 0.456790 0.853745
vt 0.342372 0.840543
vt 0.556872 0.366156
vt 0.664093 0.426919
vt 0.655157 0.267452
vt 0.659570 0.904902
vt 0.874609 0.685769
vt 0.937515 0.552387
vt 0.988594 0.704886
vt 0.797367 0.544984
vt 0.750158 0.692294
vt 0.537750 0.990431
vt 0.673338 0.624146
vt 0.397500 0.990293
vt 0.358502 0.544984
vt 0.130006 0.009569
vt 0.114249 0.169026
vt 0.007119 0.107959
vt 0.015820 0.267452
vt 0.224886 0.100061
vt 0.342517 0.366459
vt 0.928668 0.525685
vt 0.868136 0.390194
vt 0.992528 0.352110
vt 0.916296 0.230545
vt 0.807652 0.525847
vt 0.556727 0.169026
vt 0.433985 0.267765
vt 0.446091 0.100061
vt 0.798319 0.851943
vt 0.938469 0.859344
vt 0.858802 0.987596
vt 0.236992 0.267765
vt 0.328605 0.169329
vt 0.328460 0.366459
vt 0.224640 0.435435
vt 0.673926 0.813859
vt 0.791845 0.224019
vt 0.727985 0.397595
vt 0.677861 0.243137
vt 0.993116 0.162397
vt 0.342372 0.169329
vt 0.540971 0.009569
vt 0.663858 0.107959
vt 0.206481 0.551315
vt 0.312475 0.544984
vt 0.282654 0.683600
vt 0.737786 0.987435
vt 0.262103 0.525847
vt 0.114104 0.366156
vt 0.869088 0.083235
vt 0.728939 0.090637
vt 0.089999 0.840781
vt 0.133227 0.990431
vt 0.011406 0.904902
vt 0.214187 0.853745
vt 0.328605 0.840543
vt 0.273477 0.990293
vt 0.142404 0.683740
vt 0.129625 0.525658
vt 0.085545 0.545209
vt 0.017079 0.715355
vt 0.006884 0.426919
vn 0.262856 -0.525712 0.808985
vn 0.425306 -0.850642 0.309000
vn 0.723594 -0.447188 0.525712
vn -0.162450 -0.850642 0.499985
vn -0.276376 -0.447188 0.850642
vn 0.000000 -1.000000 0.000000
vn 0.850642 -0.525712 0.000000
vn 0.425306 -0.850642 -0.309000
vn 0.723594 -0.447188 -0.525712
vn -0.688162 -0.525712 0.499985
vn -0.525712 -0.850642 0.000000
vn -0.894406 -0.447188 0.000000
vn -0.688162 -0.525712 -0.499985
vn -0.162450 -0.850642 -0.499985
vn -0.276376 -0.447188 -0.850642
vn 0.262856 -0.525712 -0.808985
vn 0.951048 0.000000 0.309000
vn 0.951048 0.000000 -0.309000
vn 0.894406 0.447188 0.000000
vn 0.000000 0.000000 1.000000
vn 0.587756 0.000000 0.809015
vn 0.276376 0.447188 0.850642
vn -0.951048 0.000000 0.309000
vn -0.587756 0.000000 0.809015
vn -0.723594 0.447188 0.525712
vn -0.587756 0.000000 -0.809015
vn -0.951048 0.000000 -0.309000
vn -0.723594 0.447188 -0.525712
vn 0.587756 0.000000 -0.809015
vn 0.000000 0.000000 -1.000000
vn 0.276376 0.447188 -0.850642
vn 0.688162 0.525712 0.499985
vn -0.262856 0.525712 0.808985
vn -0.850642 0.525712 0.000000
vn -0.262856 0.525712 -0.808985
vn 0.688162 0.525712 -0.499985
vn 0.162450 0.850642 0.499985
vn 0.525712 0.850642 0.000000
vn 0.000000 1.000000 0.000000
vn -0.425306 0.850642 0.309000
vn -0.425306 0.850642 -0.309000
vn 0.162450 0.850642 -0.499985
usemtl Material_spherenorm.png
s 1
f 15/1/1 13/2/2 2/3/3
f 13/2/2 15/1/1 14/4/4
f 3/5/5 14/6/4 15/7/1
f 14/4/4 1/8/6 13/2/2
f 17/9/7 2/3/3 13/2/2
f 13/2/2 16/10/8 17/9/7
f 6/11/9 17/9/7 16/10/8
f 13/2/2 1/8/6 16/10/8
f 19/12/10 14/6/4 3/5/5
f 14/6/4 19/12/10 18/13/11
f 4/14/12 18/13/11 19/12/10
f 18/15/11 1/8/6 14/4/4
f 21/16/13 18/17/11 4/18/12
f 18/17/11 21/16/13 20/19/14
f 5/20/15 20/19/14 21/16/13
f 20/21/14 1/8/6 18/15/11
f 22/22/16 20/19/14 5/20/15
f 20/21/14 22/23/16 16/10/8
f 6/11/9 16/10/8 22/23/16
f 16/10/8 1/8/6 20/21/14
f 24/24/17 2/3/3 17/9/7
f 17/25/7 23/26/18 24/27/17
f 11/28/19 24/27/17 23/26/18
f 23/26/18 17/25/7 6/29/9
f 26/30/20 3/5/5 15/7/1
f 15/31/1 25/32/21 26/33/20
f 7/34/22 26/33/20 25/32/21
f 25/32/21 15/31/1 2/35/3
f 28/36/23 4/14/12 19/12/10
f 19/12/10 27/37/24 28/36/23
f 8/38/25 28/36/23 27/37/24
f 27/37/24 19/12/10 3/5/5
f 30/39/26 5/20/15 21/16/13
f 21/16/13 29/40/27 30/39/26
f 9/41/28 30/39/26 29/40/27
f 29/40/27 21/16/13 4/18/12
f 32/42/29 6/29/9 22/43/16
f 22/43/16 31/44/30 32/42/29
f 10/45/31 32/42/29 31/44/30
f 31/46/30 22/22/16 5/20/15
f 33/47/32 24/48/17 11/49/19
f 24/48/17 33/47/32 25/32/21
f 7/34/22 25/32/21 33/47/32
f 25/32/21 2/35/3 24/48/17
f 34/50/33 26/33/20 7/34/22
f 26/30/20 34/51/33 27/37/24
f 8/38/25 27/37/24 34/51/33
f 27/37/24 3/5/5 26/30/20
f 35/52/34 28/36/23 8/38/25
f 28/36/23 35/52/34 29/53/27
f 9/54/28 29/55/27 35/56/34
f 29/53/27 4/14/12 28/36/23
f 36/57/35 30/39/26 9/41/28
f 30/39/26 36/57/35 31/46/30
f 10/45/31 31/44/30 36/58/35
f 31/46/30 5/20/15 30/39/26
f 37/59/36 32/42/29 10/45/31
f 32/42/29 37/59/36 23/26/18
f 11/28/19 23/26/18 37/59/36
f 23/26/18 6/29/9 32/42/29
f 39/60/37 7/34/22 33/47/32
f 33/47/32 38/61/38 39/60/37
f 12/62/39 39/63/37 38/64/38
f 38/61/38 33/47/32 11/49/19
f 40/65/40 8/66/25 34/67/33
f 34/67/33 39/63/37 40/65/40
f 12/62/39 40/65/40 39/63/37
f 39/60/37 34/50/33 7/34/22
f 41/68/41 9/54/28 35/56/34
f 35/56/34 40/65/40 41/68/41
f 12/62/39 41/68/41 40/65/40
f 40/65/40 35/56/34 8/66/25
f 42/69/42 10/45/31 36/58/35
f 36/70/35 41/68/41 42/71/42
f 12/62/39 42/71/42 41/68/41
f 41/68/41 36/70/35 9/54/28
f 38/72/38 11/28/19 37/59/36
f 37/59/36 42/69/42 38/72/38
f 12/62/39 38/64/38 42/71/42
f 42/69/42 37/59/36 10/45/31
