# Blender v2.54 (sub 0) OBJ File: 'sphere.blend'
# www.blender.org
mtllib sphere.mtl
o Cube
v 0.000000 -1.000000 0.000000
v 0.723600 -0.447215 0.525720
v -0.276385 -0.447215 0.850640
v -0.894425 -0.447215 0.000000
v -0.276385 -0.447215 -0.850640
v 0.723600 -0.447215 -0.525720
v 0.276385 0.447215 0.850640
v -0.723600 0.447215 0.525720
v -0.723600 0.447215 -0.525720
v 0.276385 0.447215 -0.850640
v 0.894425 0.447215 -0.000000
v 0.000000 1.000000 -0.000000
v 0.425323 -0.850654 0.309011
v -0.162456 -0.850654 0.499995
v 0.262869 -0.525738 0.809012
v 0.425323 -0.850654 -0.309011
v 0.850648 -0.525736 0.000000
v -0.525730 -0.850652 0.000000
v -0.688189 -0.525736 0.499997
v -0.162456 -0.850654 -0.499995
v -0.688189 -0.525736 -0.499997
v 0.262869 -0.525738 -0.809012
v 0.951058 -0.000000 -0.309013
v 0.951058 0.000000 0.309013
v 0.587786 0.000000 0.809017
v 0.000000 0.000000 1.000000
v -0.587786 0.000000 0.809017
v -0.951058 0.000000 0.309013
v -0.951058 -0.000000 -0.309013
v -0.587786 -0.000000 -0.809017
v 0.000000 -0.000000 -1.000000
v 0.587786 -0.000000 -0.809017
v 0.688189 0.525736 0.499997
v -0.262869 0.525738 0.809012
v -0.850648 0.525736 -0.000000
v -0.262869 0.525738 -0.809012
v 0.688189 0.525736 -0.499997
v 0.525730 0.850652 -0.000000
v 0.162456 0.850654 0.499995
v -0.425323 0.850654 0.309011
v -0.425323 0.850654 -0.309011
v 0.162456 0.850654 -0.499995
vt 0.585432 0.545209
vt 0.528572 0.683740
vt 0.464496 0.551315
vt 0.653898 0.715355
vt 0.446337 0.435435
vt 0.541352 0.525658
vt 0.408874 0.525847
vt 0.580978 0.840781
vt 0.388323 0.683600
vt 0.456790 0.853745
vt 0.342372 0.840543
vt 0.556872 0.366156
vt 0.664093 0.426919
vt 0.655157 0.267452
vt 0.659570 0.904902
vt 0.874609 0.685769
vt 0.937515 0.552387
vt 0.988594 0.704886
vt 0.797367 0.544984
vt 0.750158 0.692294
vt 0.537750 0.990431
vt 0.673338 0.624146
vt 0.397500 0.990293
vt 0.358502 0.544984
vt 0.130006 0.009569
vt 0.114249 0.169026
vt 0.007119 0.107959
vt 0.015820 0.267452
vt 0.224886 0.100061
vt 0.342517 0.366459
vt 0.928668 0.525685
vt 0.868136 0.390194
vt 0.992528 0.352110
vt 0.916296 0.230545
vt 0.807652 0.525847
vt 0.556727 0.169026
vt 0.433985 0.267765
vt 0.446091 0.100061
vt 0.798319 0.851943
vt 0.938469 0.859344
vt 0.858802 0.987596
vt 0.236992 0.267765
vt 0.328605 0.169329
vt 0.328460 0.366459
vt 0.224640 0.435435
vt 0.673926 0.813859
vt 0.791845 0.224019
vt 0.727985 0.397595
vt 0.677861 0.243137
vt 0.993116 0.162397
vt 0.342372 0.169329
vt 0.540971 0.009569
vt 0.663858 0.107959
vt 0.206481 0.551315
vt 0.312475 0.544984
vt 0.282654 0.683600
vt 0.737786 0.987435
vt 0.262103 0.525847
vt 0.114104 0.366156
vt 0.869088 0.083235
vt 0.728939 0.090637
vt 0.089999 0.840781
vt 0.133227 0.990431
vt 0.011406 0.904902
vt 0.214187 0.853745
vt 0.328605 0.840543
vt 0.273477 0.990293
vt 0.142404 0.683740
vt 0.129625 0.525658
vt 0.085545 0.545209
vt 0.017079 0.715355
vt 0.006884 0.426919
vn 0.471317 -0.661687 0.583121
vn 0.187594 -0.794658 0.577345
vn -0.038547 -0.661687 0.748789
vn 0.102381 -0.943523 0.315090
vn 0.700228 -0.661687 0.268049
vn 0.607060 -0.794656 0.000000
vn 0.700228 -0.661687 -0.268049
vn 0.331305 -0.943524 0.000000
vn -0.408939 -0.661686 0.628443
vn -0.491119 -0.794658 0.356821
vn -0.724044 -0.661694 0.194734
vn -0.268034 -0.943523 0.194737
vn -0.724044 -0.661694 -0.194734
vn -0.491119 -0.794658 -0.356821
vn -0.408939 -0.661686 -0.628443
vn -0.268034 -0.943523 -0.194737
vn -0.038547 -0.661687 -0.748789
vn 0.187594 -0.794658 -0.577345
vn 0.471317 -0.661687 -0.583121
vn 0.102381 -0.943523 -0.315090
vn 0.904981 -0.330393 0.268049
vn 0.982246 -0.187599 0.000000
vn 0.992077 0.125631 -0.000000
vn 0.904981 -0.330393 -0.268049
vn 0.024726 -0.330395 0.943519
vn 0.303531 -0.187597 0.934171
vn 0.306568 0.125651 0.943519
vn 0.534590 -0.330395 0.777851
vn -0.889698 -0.330386 0.315092
vn -0.794656 -0.187595 0.577348
vn -0.802607 0.125648 0.583125
vn -0.574584 -0.330397 0.748793
vn -0.574584 -0.330397 -0.748793
vn -0.794656 -0.187595 -0.577348
vn -0.802607 0.125648 -0.583125
vn -0.889698 -0.330386 -0.315092
vn 0.534590 -0.330395 -0.777851
vn 0.303531 -0.187597 -0.934171
vn 0.306568 0.125651 -0.943519
vn 0.024726 -0.330395 -0.943519
vn 0.889698 0.330386 0.315092
vn 0.794656 0.187595 0.577348
vn 0.574584 0.330397 0.748793
vn 0.802607 -0.125648 0.583125
vn -0.024726 0.330395 0.943519
vn -0.303531 0.187597 0.934171
vn -0.534590 0.330395 0.777851
vn -0.306568 -0.125651 0.943519
vn -0.904981 0.330393 0.268049
vn -0.982246 0.187599 0.000000
vn -0.904981 0.330393 -0.268049
vn -0.992077 -0.125631 0.000000
vn -0.534590 0.330395 -0.777851
vn -0.303531 0.187597 -0.934171
vn -0.024726 0.330395 -0.943519
vn -0.306568 -0.125651 -0.943519
vn 0.574584 0.330397 -0.748794
vn 0.794656 0.187595 -0.577348
vn 0.889698 0.330386 -0.315092
vn 0.802607 -0.125648 -0.583125
vn 0.408939 0.661686 0.628443
vn 0.491119 0.794657 0.356821
vn 0.268034 0.943523 0.194736
vn 0.724044 0.661694 0.194734
vn -0.471317 0.661687 0.583121
vn -0.187594 0.794658 0.577345
vn -0.102381 0.943523 0.315090
vn 0.038547 0.661687 0.748789
vn -0.700228 0.661688 -0.268049
vn -0.607060 0.794656 0.000000
vn -0.331305 0.943524 0.000000
vn -0.700228 0.661688 0.268049
vn 0.038547 0.661687 -0.748789
vn -0.187594 0.794658 -0.577345
vn -0.102381 0.943523 -0.315090
vn -0.471317 0.661687 -0.583121
vn 0.724044 0.661694 -0.194734
vn 0.491119 0.794657 -0.356821
vn 0.268034 0.943523 -0.194737
vn 0.408939 0.661686 -0.628443
usemtl Material_spherenorm.png
s off
f 15/1/1 13/2/1 2/3/1
f 13/2/2 15/1/2 14/4/2
f 3/5/3 14/6/3 15/7/3
f 14/4/4 1/8/4 13/2/4
f 17/9/5 2/3/5 13/2/5
f 13/2/6 16/10/6 17/9/6
f 6/11/7 17/9/7 16/10/7
f 13/2/8 1/8/8 16/10/8
f 19/12/9 14/6/9 3/5/9
f 14/6/10 19/12/10 18/13/10
f 4/14/11 18/13/11 19/12/11
f 18/15/12 1/8/12 14/4/12
f 21/16/13 18/17/13 4/18/13
f 18/17/14 21/16/14 20/19/14
f 5/20/15 20/19/15 21/16/15
f 20/21/16 1/8/16 18/15/16
f 22/22/17 20/19/17 5/20/17
f 20/21/18 22/23/18 16/10/18
f 6/11/19 16/10/19 22/23/19
f 16/10/20 1/8/20 20/21/20
f 24/24/21 2/3/21 17/9/21
f 17/25/22 23/26/22 24/27/22
f 11/28/23 24/27/23 23/26/23
f 23/26/24 17/25/24 6/29/24
f 26/30/25 3/5/25 15/7/25
f 15/31/26 25/32/26 26/33/26
f 7/34/27 26/33/27 25/32/27
f 25/32/28 15/31/28 2/35/28
f 28/36/29 4/14/29 19/12/29
f 19/12/30 27/37/30 28/36/30
f 8/38/31 28/36/31 27/37/31
f 27/37/32 19/12/32 3/5/32
f 30/39/33 5/20/33 21/16/33
f 21/16/34 29/40/34 30/39/34
f 9/41/35 30/39/35 29/40/35
f 29/40/36 21/16/36 4/18/36
f 32/42/37 6/29/37 22/43/37
f 22/43/38 31/44/38 32/42/38
f 10/45/39 32/42/39 31/44/39
f 31/46/40 22/22/40 5/20/40
f 33/47/41 24/48/41 11/49/41
f 24/48/42 33/47/42 25/32/42
f 7/34/43 25/32/43 33/47/43
f 25/32/44 2/35/44 24/48/44
f 34/50/45 26/33/45 7/34/45
f 26/30/46 34/51/46 27/37/46
f 8/38/47 27/37/47 34/51/47
f 27/37/48 3/5/48 26/30/48
f 35/52/49 28/36/49 8/38/49
f 28/36/50 35/52/50 29/53/50
f 9/54/51 29/55/51 35/56/51
f 29/53/52 4/14/52 28/36/52
f 36/57/53 30/39/53 9/41/53
f 30/39/54 36/57/54 31/46/54
f 10/45/55 31/44/55 36/58/55
f 31/46/56 5/20/56 30/39/56
f 37/59/57 32/42/57 10/45/57
f 32/42/58 37/59/58 23/26/58
f 11/28/59 23/26/59 37/59/59
f 23/26/60 6/29/60 32/42/60
f 39/60/61 7/34/61 33/47/61
f 33/47/62 38/61/62 39/60/62
f 12/62/63 39/63/63 38/64/63
f 38/61/64 33/47/64 11/49/64
f 40/65/65 8/66/65 34/67/65
f 34/67/66 39/63/66 40/65/66
f 12/62/67 40/65/67 39/63/67
f 39/60/68 34/50/68 7/34/68
f 41/68/69 9/54/69 35/56/69
f 35/56/70 40/65/70 41/68/70
f 12/62/71 41/68/71 40/65/71
f 40/65/72 35/56/72 8/66/72
f 42/69/73 10/45/73 36/58/73
f 36/70/74 41/68/74 42/71/74
f 12/62/75 42/71/75 41/68/75
f 41/68/76 36/70/76 9/54/76
f 38/72/77 11/28/77 37/59/77
f 37/59/78 42/69/78 38/72/78
f 12/62/79 38/64/79 42/71/79
f 42/69/80 37/59/80 10/45/80
