# Blender v2.53 (sub 1) OBJ File: sphere.blend
# www.blender.org
mtllib sphere.mtl
o Cube
v 0.000000 -1.000000 0.000000
v 0.723600 -0.447215 0.525720
v -0.276385 -0.447215 0.850640
v -0.894425 -0.447215 0.000000
v -0.276385 -0.447215 -0.850640
v 0.723600 -0.447215 -0.525720
v 0.276385 0.447215 0.850640
v -0.723600 0.447215 0.525720
v -0.723600 0.447215 -0.525720
v 0.276385 0.447215 -0.850640
v 0.894425 0.447215 -0.000000
v 0.000000 1.000000 -0.000000
v 0.425323 -0.850654 0.309011
v -0.162456 -0.850654 0.499995
v 0.262869 -0.525738 0.809012
v 0.425323 -0.850654 -0.309011
v 0.850648 -0.525736 0.000000
v -0.525730 -0.850652 0.000000
v -0.688189 -0.525736 0.499997
v -0.162456 -0.850654 -0.499995
v -0.688189 -0.525736 -0.499997
v 0.262869 -0.525738 -0.809012
v 0.951058 -0.000000 -0.309013
v 0.951058 0.000000 0.309013
v 0.587786 0.000000 0.809017
v 0.000000 0.000000 1.000000
v -0.587786 0.000000 0.809017
v -0.951058 0.000000 0.309013
v -0.951058 -0.000000 -0.309013
v -0.587786 -0.000000 -0.809017
v 0.000000 -0.000000 -1.000000
v 0.587786 -0.000000 -0.809017
v 0.688189 0.525736 0.499997
v -0.262869 0.525738 0.809012
v -0.850648 0.525736 -0.000000
v -0.262869 0.525738 -0.809012
v 0.688189 0.525736 -0.499997
v 0.525730 0.850652 -0.000000
v 0.162456 0.850654 0.499995
v -0.425323 0.850654 0.309011
v -0.425323 0.850654 -0.309011
v 0.162456 0.850654 -0.499995
vt 0.874609 0.685769
vt 0.937515 0.552387
vt 0.988594 0.704886
vt 0.797367 0.544984
vt 0.750158 0.692294
vt 0.537750 0.990431
vt 0.580978 0.840781
vt 0.659570 0.904902
vt 0.673338 0.624146
vt 0.397500 0.990293
vt 0.456790 0.853745
vt 0.342372 0.840543
vt 0.798319 0.851943
vt 0.938469 0.859344
vt 0.858802 0.987596
vt 0.236992 0.267765
vt 0.224886 0.100061
vt 0.328605 0.169329
vt 0.328460 0.366459
vt 0.224640 0.435435
vt 0.673926 0.813859
vt 0.556727 0.169026
vt 0.540971 0.009569
vt 0.663858 0.107959
vt 0.206481 0.551315
vt 0.312475 0.544984
vt 0.282654 0.683600
vt 0.655157 0.267452
vt 0.737786 0.987435
vt 0.262103 0.525847
vt 0.114104 0.366156
vt 0.114249 0.169026
vt 0.015820 0.267452
vt 0.142404 0.683740
vt 0.214187 0.853745
vt 0.089999 0.840781
vt 0.129625 0.525658
vt 0.085545 0.545209
vt 0.017079 0.715355
vt 0.006884 0.426919
vt 0.011406 0.904902
vt 0.585432 0.545209
vt 0.528572 0.683740
vt 0.464496 0.551315
vt 0.653898 0.715355
vt 0.446337 0.435435
vt 0.541352 0.525658
vt 0.408874 0.525847
vt 0.388323 0.683600
vt 0.556872 0.366156
vt 0.664093 0.426919
vt 0.358502 0.544984
vt 0.130006 0.009569
vt 0.007119 0.107959
vt 0.342517 0.366459
vt 0.928668 0.525685
vt 0.868136 0.390194
vt 0.992528 0.352110
vt 0.916296 0.230545
vt 0.807652 0.525847
vt 0.433985 0.267765
vt 0.446091 0.100061
vt 0.791845 0.224019
vt 0.727985 0.397595
vt 0.677861 0.243137
vt 0.993116 0.162397
vt 0.342372 0.169329
vt 0.869088 0.083235
vt 0.728939 0.090637
vt 0.133227 0.990431
vt 0.328605 0.840543
vt 0.273477 0.990293
vn -0.724044 -0.661694 -0.194734
vn -0.491119 -0.794658 -0.356821
vn -0.408939 -0.661686 -0.628443
vn -0.268034 -0.943523 -0.194737
vn -0.038547 -0.661687 -0.748789
vn 0.187594 -0.794658 -0.577345
vn 0.471317 -0.661687 -0.583121
vn 0.102381 -0.943523 -0.315090
vn -0.574584 -0.330397 -0.748793
vn -0.794656 -0.187595 -0.577348
vn -0.802607 0.125648 -0.583125
vn -0.889698 -0.330386 -0.315092
vn 0.534590 -0.330395 -0.777851
vn 0.303531 -0.187597 -0.934171
vn 0.306568 0.125651 -0.943519
vn 0.024726 -0.330395 -0.943519
vn -0.982246 0.187599 0.000000
vn -0.904981 0.330393 -0.268049
vn -0.992077 -0.125631 0.000000
vn -0.534590 0.330395 -0.777851
vn -0.303531 0.187597 -0.934171
vn -0.024726 0.330395 -0.943519
vn -0.306568 -0.125651 -0.943519
vn 0.574584 0.330397 -0.748794
vn 0.794656 0.187595 -0.577348
vn 0.889698 0.330386 -0.315092
vn 0.802607 -0.125648 -0.583125
vn -0.700228 0.661688 -0.268049
vn -0.607060 0.794656 0.000000
vn -0.331305 0.943524 0.000000
vn 0.038547 0.661687 -0.748789
vn -0.187594 0.794658 -0.577345
vn -0.102381 0.943523 -0.315090
vn -0.471317 0.661687 -0.583121
vn 0.724044 0.661694 -0.194734
vn 0.491119 0.794657 -0.356821
vn 0.268034 0.943523 -0.194737
vn 0.408939 0.661686 -0.628443
vn 0.262856 -0.525712 0.808985
vn 0.425306 -0.850642 0.309000
vn 0.723594 -0.447188 0.525712
vn -0.162450 -0.850642 0.499985
vn -0.276376 -0.447188 0.850642
vn 0.000000 -1.000000 0.000000
vn 0.850642 -0.525712 0.000000
vn 0.425306 -0.850642 -0.309000
vn 0.723594 -0.447188 -0.525712
vn -0.688162 -0.525712 0.499985
vn -0.525712 -0.850642 0.000000
vn -0.894406 -0.447188 0.000000
vn 0.951048 0.000000 0.309000
vn 0.951048 0.000000 -0.309000
vn 0.894406 0.447188 0.000000
vn 0.000000 0.000000 1.000000
vn 0.587756 0.000000 0.809015
vn 0.276376 0.447188 0.850642
vn -0.951048 0.000000 0.309000
vn -0.587756 0.000000 0.809015
vn -0.723594 0.447188 0.525712
vn 0.688162 0.525712 0.499985
vn -0.262856 0.525712 0.808985
vn -0.850642 0.525712 0.000000
vn 0.162450 0.850642 0.499985
vn 0.525712 0.850642 0.000000
vn 0.000000 1.000000 0.000000
vn -0.425306 0.850642 0.309000
usemtl Material_spherenorm.png
s off
f 21/1/1 18/2/1 4/3/1
f 18/2/2 21/1/2 20/4/2
f 5/5/3 20/4/3 21/1/3
f 20/6/4 1/7/4 18/8/4
f 22/9/5 20/4/5 5/5/5
f 20/6/6 22/10/6 16/11/6
f 6/12/7 16/11/7 22/10/7
f 16/11/8 1/7/8 20/6/8
f 30/13/9 5/5/9 21/1/9
f 21/1/10 29/14/10 30/13/10
f 9/15/11 30/13/11 29/14/11
f 29/14/12 21/1/12 4/3/12
f 32/16/13 6/17/13 22/18/13
f 22/18/14 31/19/14 32/16/14
f 10/20/15 32/16/15 31/19/15
f 31/21/16 22/9/16 5/5/16
f 28/22/17 35/23/17 29/24/17
f 9/25/18 29/26/18 35/27/18
f 29/24/19 4/28/19 28/22/19
f 36/29/20 30/13/20 9/15/20
f 30/13/21 36/29/21 31/21/21
f 10/20/22 31/19/22 36/30/22
f 31/21/23 5/5/23 30/13/23
f 37/31/24 32/16/24 10/20/24
f 32/16/25 37/31/25 23/32/25
f 11/33/26 23/32/26 37/31/26
f 23/32/27 6/17/27 32/16/27
f 41/34/28 9/25/28 35/27/28
f 35/27/29 40/35/29 41/34/29
f 12/36/30 41/34/30 40/35/30
f 42/37/31 10/20/31 36/30/31
f 36/38/32 41/34/32 42/39/32
f 12/36/33 42/39/33 41/34/33
f 41/34/34 36/38/34 9/25/34
f 38/40/35 11/33/35 37/31/35
f 37/31/36 42/37/36 38/40/36
f 12/36/37 38/41/37 42/39/37
f 42/37/38 37/31/38 10/20/38
s 1
f 15/42/39 13/43/40 2/44/41
f 13/43/40 15/42/39 14/45/42
f 3/46/43 14/47/42 15/48/39
f 14/45/42 1/7/44 13/43/40
f 17/49/45 2/44/41 13/43/40
f 13/43/40 16/11/46 17/49/45
f 6/12/47 17/49/45 16/11/46
f 13/43/40 1/7/44 16/11/46
f 19/50/48 14/47/42 3/46/43
f 14/47/42 19/50/48 18/51/49
f 4/28/50 18/51/49 19/50/48
f 18/8/49 1/7/44 14/45/42
f 24/52/51 2/44/41 17/49/45
f 17/53/45 23/32/52 24/54/51
f 11/33/53 24/54/51 23/32/52
f 23/32/52 17/53/45 6/17/47
f 26/55/54 3/46/43 15/48/39
f 15/56/39 25/57/55 26/58/54
f 7/59/56 26/58/54 25/57/55
f 25/57/55 15/56/39 2/60/41
f 28/22/57 4/28/50 19/50/48
f 19/50/48 27/61/58 28/22/57
f 8/62/59 28/22/57 27/61/58
f 27/61/58 19/50/48 3/46/43
f 33/63/60 24/64/51 11/65/53
f 24/64/51 33/63/60 25/57/55
f 7/59/56 25/57/55 33/63/60
f 25/57/55 2/60/41 24/64/51
f 34/66/61 26/58/54 7/59/56
f 26/55/54 34/67/61 27/61/58
f 8/62/59 27/61/58 34/67/61
f 27/61/58 3/46/43 26/55/54
f 35/23/62 28/22/57 8/62/59
f 39/68/63 7/59/56 33/63/60
f 33/63/60 38/69/64 39/68/63
f 12/36/65 39/70/63 38/41/64
f 38/69/64 33/63/60 11/65/53
f 40/35/66 8/71/59 34/72/61
f 34/72/61 39/70/63 40/35/66
f 12/36/65 40/35/66 39/70/63
f 39/68/63 34/66/61 7/59/56
f 40/35/66 35/27/62 8/71/59
