# Blender v2.53 (sub 1) OBJ File: spherflat.blend
# www.blender.org
mtllib spherflat.mtl
o Sphere
v 0.000000 1.000000 -0.000000
v 0.707107 0.707107 -0.000000
v 1.000000 -0.000000 0.000000
v 0.707107 -0.707107 0.000000
v -0.000000 -1.000000 0.000000
v -0.707107 0.707107 0.000000
v -1.000000 0.000000 0.000000
v -0.707107 -0.707107 0.000000
v 0.000000 -0.707107 0.328699
v 0.000000 0.000000 0.621592
v 0.000000 0.707107 0.328699
v -0.707107 -0.707107 -1.000000
v -1.000000 -0.000000 -1.000000
v -0.707107 0.707107 -1.000000
v -0.000000 -1.000000 -1.000000
v 0.707107 -0.707107 -1.000000
v 1.000000 -0.000000 -1.000000
v 0.707107 0.707107 -1.000000
v 0.000000 1.000000 -1.000000
vt 0.444025 0.532289
vt 0.574077 0.411704
vt 0.757998 0.411704
vt 0.888049 0.532289
vt 0.444025 0.702822
vt 0.888049 0.702822
vt 0.574077 0.823407
vt 0.757998 0.823407
vt 0.259367 0.634885
vt 0.129316 0.634515
vt 0.130053 0.411704
vt 0.260105 0.412074
vt 0.999037 0.004695
vt 0.999601 0.175227
vt 0.759298 0.175911
vt 0.758734 0.005379
vt 1.000000 0.295812
vt 0.759697 0.296496
vt 0.444025 0.073684
vt 0.627945 0.073161
vt 0.628682 0.295973
vt 0.444762 0.296496
vt 0.443461 0.879415
vt 0.443062 1.000000
vt 0.203157 0.878732
vt 0.202758 0.999316
vt 0.444025 0.708883
vt 0.203721 0.708199
vt 0.757996 0.072791
vt 0.758733 0.295603
vt 0.443288 0.635408
vt 0.444025 0.412597
vt 0.313973 0.411704
vt 0.287038 0.351411
vt 0.444025 0.291118
vt 0.286059 0.708199
vt 0.000000 0.120585
vt 0.130052 0.000000
vt 0.156986 0.060293
vt 0.600768 0.000000
vt 0.130052 0.411704
vt 0.222012 0.205852
vt 0.000000 0.291118
vt 0.444025 0.120585
vt 0.313973 0.000000
vn 0.000000 0.000000 1.000000
vn 0.382683 0.923880 -0.000000
vn 0.923880 0.382683 -0.000000
vn 0.923880 -0.382683 0.000000
vn 0.382683 -0.923880 0.000000
vn -0.923880 0.382683 -0.000000
vn -0.923880 -0.382683 0.000000
vn -0.382683 -0.923880 0.000000
vn -0.382683 0.923880 -0.000000
vn -0.086886 -0.953459 0.288675
vn 0.000000 -0.582873 0.812525
vn -0.674276 -0.582354 0.454085
vn 0.000000 0.582873 0.812525
vn 0.000000 0.970550 0.240852
vn -0.674276 0.582354 0.454085
vn 0.674276 0.582354 0.454085
vn 0.567217 -0.687490 0.453413
vn 0.912656 -0.091830 0.398206
vn -0.866390 0.000000 0.499313
usemtl Gold_Untitled
s off
f 18/1/1 19/2/1 14/3/1
f 18/1/1 14/3/1 13/4/1
f 17/5/1 18/1/1 13/4/1
f 17/5/1 13/4/1 12/6/1
f 16/7/1 17/5/1 12/6/1
f 15/8/1 16/7/1 12/6/1
f 1/9/2 2/10/2 18/11/2
f 1/9/2 18/11/2 19/12/2
f 2/13/3 3/14/3 17/15/3
f 2/13/3 17/15/3 18/16/3
f 3/14/4 4/17/4 16/18/4
f 3/14/4 16/18/4 17/15/4
f 4/19/5 5/20/5 15/21/5
f 4/19/5 15/21/5 16/22/5
f 7/23/6 6/24/6 13/25/6
f 6/24/6 14/26/6 13/25/6
f 8/27/7 7/23/7 13/25/7
f 8/27/7 13/25/7 12/28/7
f 5/20/8 8/29/8 12/30/8
f 5/20/8 12/30/8 15/21/8
f 6/31/9 1/9/9 14/32/9
f 1/9/9 19/12/9 14/32/9
usemtl Silver_Untitled
s 1
f 5/33/10 9/34/11 8/35/12
f 11/36/13 1/9/14 6/31/15
f 2/37/16 1/38/14 11/39/13
f 5/20/10 4/19/17 9/40/11
f 9/34/11 4/41/17 10/42/1
f 4/41/17 3/43/18 10/42/1
f 10/42/1 3/43/18 2/37/16
f 10/42/1 2/37/16 11/39/13
f 7/44/19 10/42/1 6/45/15
f 10/42/1 11/39/13 6/45/15
f 8/35/12 9/34/11 10/42/1
f 8/35/12 10/42/1 7/44/19
